<mxfile host="app.diagrams.net" agent="Mozilla/5.0 (Windows NT 10.0; Win64; x64) AppleWebKit/537.36 (KHTML, like Gecko) Chrome/135.0.0.0 Safari/537.36" version="26.2.14">
  <diagram name="Page-1" id="5f0bae14-7c28-e335-631c-24af17079c00">
    <mxGraphModel dx="1906" dy="981" grid="1" gridSize="10" guides="1" tooltips="1" connect="1" arrows="1" fold="1" page="1" pageScale="1" pageWidth="1100" pageHeight="850" background="none" math="0" shadow="0">
      <root>
        <mxCell id="0" />
        <mxCell id="1" parent="0" />
        <mxCell id="39150e848f15840c-1" value="Interface" style="verticalAlign=top;align=left;spacingTop=8;spacingLeft=2;spacingRight=12;shape=cube;size=10;direction=south;fontStyle=4;html=1;rounded=0;shadow=0;comic=0;labelBackgroundColor=none;strokeWidth=1;fontFamily=Verdana;fontSize=12" parent="1" vertex="1">
          <mxGeometry x="265" y="20" width="330" height="190" as="geometry" />
        </mxCell>
        <mxCell id="39150e848f15840c-3" value="Date-Time" style="verticalAlign=top;align=left;spacingTop=8;spacingLeft=2;spacingRight=12;shape=cube;size=10;direction=south;fontStyle=4;html=1;rounded=0;shadow=0;comic=0;labelBackgroundColor=none;strokeWidth=1;fontFamily=Verdana;fontSize=12" parent="1" vertex="1">
          <mxGeometry x="50" y="50" width="190" height="130" as="geometry" />
        </mxCell>
        <mxCell id="39150e848f15840c-4" value="Mobile&lt;div&gt;(Android/iOS)&lt;/div&gt;" style="html=1;rounded=0;shadow=0;comic=0;labelBackgroundColor=none;strokeWidth=1;fontFamily=Verdana;fontSize=12;align=center;" parent="1" vertex="1">
          <mxGeometry x="300" y="60" width="110" height="50" as="geometry" />
        </mxCell>
        <mxCell id="39150e848f15840c-5" value="Module" style="shape=component;align=left;spacingLeft=36;rounded=0;shadow=0;comic=0;labelBackgroundColor=none;strokeWidth=1;fontFamily=Verdana;fontSize=12;html=1;" parent="1" vertex="1">
          <mxGeometry x="455" y="85" width="120" height="60" as="geometry" />
        </mxCell>
        <mxCell id="39150e848f15840c-6" value="" style="ellipse;whiteSpace=wrap;html=1;rounded=0;shadow=0;comic=0;labelBackgroundColor=none;strokeWidth=1;fontFamily=Verdana;fontSize=12;align=center;" parent="1" vertex="1">
          <mxGeometry x="505" y="180" width="20" height="20" as="geometry" />
        </mxCell>
        <mxCell id="39150e848f15840c-10" value="Module" style="shape=component;align=left;spacingLeft=36;rounded=0;shadow=0;comic=0;labelBackgroundColor=none;strokeWidth=1;fontFamily=Verdana;fontSize=12;html=1;" parent="1" vertex="1">
          <mxGeometry x="85" y="110" width="120" height="60" as="geometry" />
        </mxCell>
        <mxCell id="39150e848f15840c-11" style="edgeStyle=none;rounded=0;html=1;dashed=1;labelBackgroundColor=none;startArrow=none;startFill=0;startSize=8;endArrow=open;endFill=0;endSize=16;fontFamily=Verdana;fontSize=12;" parent="1" source="39150e848f15840c-10" target="39150e848f15840c-6" edge="1">
          <mxGeometry relative="1" as="geometry" />
        </mxCell>
        <mxCell id="39150e848f15840c-14" style="edgeStyle=elbowEdgeStyle;rounded=0;html=1;labelBackgroundColor=none;startArrow=none;startFill=0;startSize=8;endArrow=none;endFill=0;endSize=16;fontFamily=Verdana;fontSize=12;" parent="1" source="39150e848f15840c-6" target="39150e848f15840c-5" edge="1">
          <mxGeometry relative="1" as="geometry" />
        </mxCell>
        <mxCell id="39150e848f15840c-15" style="edgeStyle=orthogonalEdgeStyle;rounded=0;html=1;labelBackgroundColor=none;startArrow=none;startFill=0;startSize=8;endArrow=open;endFill=0;endSize=16;fontFamily=Verdana;fontSize=12;dashed=1;" parent="1" source="39150e848f15840c-5" target="39150e848f15840c-4" edge="1">
          <mxGeometry relative="1" as="geometry">
            <Array as="points">
              <mxPoint x="495" y="160" />
              <mxPoint x="360" y="160" />
            </Array>
          </mxGeometry>
        </mxCell>
        <mxCell id="_gdVhUl3nsyEt75Ght2n-1" value="Access User Account" style="verticalAlign=top;align=left;spacingTop=8;spacingLeft=2;spacingRight=12;shape=cube;size=10;direction=south;fontStyle=4;html=1;rounded=0;shadow=0;comic=0;labelBackgroundColor=none;strokeWidth=1;fontFamily=Verdana;fontSize=12" vertex="1" parent="1">
          <mxGeometry x="720" y="340" width="260" height="150" as="geometry" />
        </mxCell>
        <mxCell id="_gdVhUl3nsyEt75Ght2n-2" value="Food and Chore Management System" style="verticalAlign=top;align=left;spacingTop=8;spacingLeft=2;spacingRight=12;shape=cube;size=10;direction=south;fontStyle=4;html=1;rounded=0;shadow=0;comic=0;labelBackgroundColor=none;strokeWidth=1;fontFamily=Verdana;fontSize=12" vertex="1" parent="1">
          <mxGeometry x="710" y="110" width="260" height="150" as="geometry" />
        </mxCell>
        <mxCell id="_gdVhUl3nsyEt75Ght2n-3" value="Module" style="shape=component;align=left;spacingLeft=36;rounded=0;shadow=0;comic=0;labelBackgroundColor=none;strokeWidth=1;fontFamily=Verdana;fontSize=12;html=1;" vertex="1" parent="1">
          <mxGeometry x="820" y="170" width="120" height="60" as="geometry" />
        </mxCell>
        <mxCell id="_gdVhUl3nsyEt75Ght2n-4" value="Module" style="shape=component;align=left;spacingLeft=36;rounded=0;shadow=0;comic=0;labelBackgroundColor=none;strokeWidth=1;fontFamily=Verdana;fontSize=12;html=1;" vertex="1" parent="1">
          <mxGeometry x="840" y="380" width="120" height="60" as="geometry" />
        </mxCell>
        <mxCell id="_gdVhUl3nsyEt75Ght2n-5" value="Food Item" style="verticalAlign=top;align=left;spacingTop=8;spacingLeft=2;spacingRight=12;shape=cube;size=10;direction=south;fontStyle=4;html=1;rounded=0;shadow=0;comic=0;labelBackgroundColor=none;strokeWidth=1;fontFamily=Verdana;fontSize=12" vertex="1" parent="1">
          <mxGeometry x="390" y="495" width="260" height="150" as="geometry" />
        </mxCell>
        <mxCell id="_gdVhUl3nsyEt75Ght2n-6" value="Module" style="shape=component;align=left;spacingLeft=36;rounded=0;shadow=0;comic=0;labelBackgroundColor=none;strokeWidth=1;fontFamily=Verdana;fontSize=12;html=1;" vertex="1" parent="1">
          <mxGeometry x="510" y="535" width="120" height="60" as="geometry" />
        </mxCell>
        <mxCell id="_gdVhUl3nsyEt75Ght2n-7" value="Chore Item" style="verticalAlign=top;align=left;spacingTop=8;spacingLeft=2;spacingRight=12;shape=cube;size=10;direction=south;fontStyle=4;html=1;rounded=0;shadow=0;comic=0;labelBackgroundColor=none;strokeWidth=1;fontFamily=Verdana;fontSize=12" vertex="1" parent="1">
          <mxGeometry x="170" y="475" width="155" height="120" as="geometry" />
        </mxCell>
        <mxCell id="_gdVhUl3nsyEt75Ght2n-8" value="Module" style="shape=component;align=left;spacingLeft=36;rounded=0;shadow=0;comic=0;labelBackgroundColor=none;strokeWidth=1;fontFamily=Verdana;fontSize=12;html=1;" vertex="1" parent="1">
          <mxGeometry x="210" y="525" width="95" height="40" as="geometry" />
        </mxCell>
        <mxCell id="_gdVhUl3nsyEt75Ght2n-10" value="Chore Schedule" style="verticalAlign=top;align=left;spacingTop=8;spacingLeft=2;spacingRight=12;shape=cube;size=10;direction=south;fontStyle=4;html=1;rounded=0;shadow=0;comic=0;labelBackgroundColor=none;strokeWidth=1;fontFamily=Verdana;fontSize=12" vertex="1" parent="1">
          <mxGeometry x="170" y="245" width="285" height="170" as="geometry" />
        </mxCell>
        <mxCell id="_gdVhUl3nsyEt75Ght2n-11" value="Module" style="shape=component;align=left;spacingLeft=36;rounded=0;shadow=0;comic=0;labelBackgroundColor=none;strokeWidth=1;fontFamily=Verdana;fontSize=12;html=1;" vertex="1" parent="1">
          <mxGeometry x="300" y="275" width="120" height="60" as="geometry" />
        </mxCell>
        <mxCell id="_gdVhUl3nsyEt75Ght2n-12" style="edgeStyle=none;rounded=0;html=1;dashed=1;labelBackgroundColor=none;startArrow=none;startFill=0;startSize=8;endArrow=open;endFill=0;endSize=16;fontFamily=Verdana;fontSize=12;" edge="1" parent="1" source="39150e848f15840c-6" target="_gdVhUl3nsyEt75Ght2n-2">
          <mxGeometry relative="1" as="geometry">
            <mxPoint x="575" y="280" as="sourcePoint" />
            <mxPoint x="900" y="313" as="targetPoint" />
          </mxGeometry>
        </mxCell>
        <mxCell id="_gdVhUl3nsyEt75Ght2n-13" value="Makes API Calls" style="edgeLabel;html=1;align=center;verticalAlign=middle;resizable=0;points=[];fontStyle=1" vertex="1" connectable="0" parent="_gdVhUl3nsyEt75Ght2n-12">
          <mxGeometry x="0.2243" y="1" relative="1" as="geometry">
            <mxPoint x="2" y="-17" as="offset" />
          </mxGeometry>
        </mxCell>
        <mxCell id="_gdVhUl3nsyEt75Ght2n-14" value="email" style="shape=component;align=left;spacingLeft=36;rounded=0;shadow=0;comic=0;labelBackgroundColor=none;strokeWidth=1;fontFamily=Verdana;fontSize=12;html=1;" vertex="1" parent="1">
          <mxGeometry x="180" y="345" width="120" height="60" as="geometry" />
        </mxCell>
        <mxCell id="_gdVhUl3nsyEt75Ght2n-15" style="edgeStyle=orthogonalEdgeStyle;rounded=0;html=1;labelBackgroundColor=none;startArrow=none;startFill=0;startSize=8;endArrow=open;endFill=0;endSize=16;fontFamily=Verdana;fontSize=12;dashed=1;exitX=1;exitY=0.5;exitDx=0;exitDy=0;entryX=0.5;entryY=1;entryDx=0;entryDy=0;" edge="1" parent="1" source="_gdVhUl3nsyEt75Ght2n-14" target="_gdVhUl3nsyEt75Ght2n-11">
          <mxGeometry relative="1" as="geometry">
            <Array as="points">
              <mxPoint x="360" y="375" />
            </Array>
            <mxPoint x="410" y="170" as="sourcePoint" />
            <mxPoint x="275" y="135" as="targetPoint" />
          </mxGeometry>
        </mxCell>
        <mxCell id="_gdVhUl3nsyEt75Ght2n-16" value="&lt;font style=&quot;font-size: 15px;&quot;&gt;Database&lt;/font&gt;" style="shape=cylinder3;whiteSpace=wrap;html=1;boundedLbl=1;backgroundOutline=1;size=15;" vertex="1" parent="1">
          <mxGeometry x="830" y="590" width="140" height="100" as="geometry" />
        </mxCell>
        <mxCell id="_gdVhUl3nsyEt75Ght2n-17" value="" style="endArrow=classic;html=1;rounded=0;exitX=0.989;exitY=0.547;exitDx=0;exitDy=0;exitPerimeter=0;" edge="1" parent="1" source="_gdVhUl3nsyEt75Ght2n-1" target="_gdVhUl3nsyEt75Ght2n-16">
          <mxGeometry width="50" height="50" relative="1" as="geometry">
            <mxPoint x="700" y="490" as="sourcePoint" />
            <mxPoint x="750" y="440" as="targetPoint" />
          </mxGeometry>
        </mxCell>
        <mxCell id="_gdVhUl3nsyEt75Ght2n-18" value="Reads from and writes to" style="edgeLabel;html=1;align=center;verticalAlign=middle;resizable=0;points=[];" vertex="1" connectable="0" parent="_gdVhUl3nsyEt75Ght2n-17">
          <mxGeometry x="0.0132" y="-2" relative="1" as="geometry">
            <mxPoint as="offset" />
          </mxGeometry>
        </mxCell>
        <mxCell id="_gdVhUl3nsyEt75Ght2n-19" value="" style="endArrow=classic;html=1;rounded=0;exitX=0;exitY=0;exitDx=70;exitDy=0;exitPerimeter=0;entryX=0;entryY=0.5;entryDx=0;entryDy=0;entryPerimeter=0;" edge="1" parent="1" source="_gdVhUl3nsyEt75Ght2n-5" target="_gdVhUl3nsyEt75Ght2n-16">
          <mxGeometry width="50" height="50" relative="1" as="geometry">
            <mxPoint x="779" y="524" as="sourcePoint" />
            <mxPoint x="820" y="626" as="targetPoint" />
          </mxGeometry>
        </mxCell>
        <mxCell id="_gdVhUl3nsyEt75Ght2n-20" value="Reads from and writes to" style="edgeLabel;html=1;align=center;verticalAlign=middle;resizable=0;points=[];" vertex="1" connectable="0" parent="_gdVhUl3nsyEt75Ght2n-19">
          <mxGeometry x="0.0132" y="-2" relative="1" as="geometry">
            <mxPoint as="offset" />
          </mxGeometry>
        </mxCell>
        <mxCell id="_gdVhUl3nsyEt75Ght2n-21" value="" style="endArrow=classic;html=1;rounded=0;exitX=0.989;exitY=0.547;exitDx=0;exitDy=0;exitPerimeter=0;entryX=0.145;entryY=0;entryDx=0;entryDy=4.35;entryPerimeter=0;" edge="1" parent="1" target="_gdVhUl3nsyEt75Ght2n-16">
          <mxGeometry width="50" height="50" relative="1" as="geometry">
            <mxPoint x="455" y="359" as="sourcePoint" />
            <mxPoint x="496" y="461" as="targetPoint" />
          </mxGeometry>
        </mxCell>
        <mxCell id="_gdVhUl3nsyEt75Ght2n-22" value="Reads from and writes to" style="edgeLabel;html=1;align=center;verticalAlign=middle;resizable=0;points=[];" vertex="1" connectable="0" parent="_gdVhUl3nsyEt75Ght2n-21">
          <mxGeometry x="0.0132" y="-2" relative="1" as="geometry">
            <mxPoint x="76" y="40" as="offset" />
          </mxGeometry>
        </mxCell>
        <mxCell id="_gdVhUl3nsyEt75Ght2n-23" style="edgeStyle=none;rounded=0;html=1;dashed=1;labelBackgroundColor=none;startArrow=none;startFill=0;startSize=8;endArrow=open;endFill=0;endSize=16;fontFamily=Verdana;fontSize=12;exitX=1;exitY=1;exitDx=0;exitDy=0;exitPerimeter=0;" edge="1" parent="1" target="_gdVhUl3nsyEt75Ght2n-10">
          <mxGeometry relative="1" as="geometry">
            <mxPoint x="710" y="235" as="sourcePoint" />
            <mxPoint x="720" y="275" as="targetPoint" />
          </mxGeometry>
        </mxCell>
        <mxCell id="_gdVhUl3nsyEt75Ght2n-24" value="Uses" style="edgeLabel;html=1;align=center;verticalAlign=middle;resizable=0;points=[];fontStyle=1" vertex="1" connectable="0" parent="_gdVhUl3nsyEt75Ght2n-23">
          <mxGeometry x="0.2243" y="1" relative="1" as="geometry">
            <mxPoint x="2" y="-17" as="offset" />
          </mxGeometry>
        </mxCell>
        <mxCell id="_gdVhUl3nsyEt75Ght2n-25" style="edgeStyle=none;rounded=0;html=1;dashed=1;labelBackgroundColor=none;startArrow=none;startFill=0;startSize=8;endArrow=open;endFill=0;endSize=16;fontFamily=Verdana;fontSize=12;exitX=1.014;exitY=0.768;exitDx=0;exitDy=0;exitPerimeter=0;entryX=-0.003;entryY=0.677;entryDx=0;entryDy=0;entryPerimeter=0;" edge="1" parent="1" source="_gdVhUl3nsyEt75Ght2n-2" target="_gdVhUl3nsyEt75Ght2n-5">
          <mxGeometry relative="1" as="geometry">
            <mxPoint x="871" y="260" as="sourcePoint" />
            <mxPoint x="520" y="510" as="targetPoint" />
          </mxGeometry>
        </mxCell>
        <mxCell id="_gdVhUl3nsyEt75Ght2n-26" value="Uses" style="edgeLabel;html=1;align=center;verticalAlign=middle;resizable=0;points=[];fontStyle=1" vertex="1" connectable="0" parent="_gdVhUl3nsyEt75Ght2n-25">
          <mxGeometry x="0.2243" y="1" relative="1" as="geometry">
            <mxPoint x="2" y="-17" as="offset" />
          </mxGeometry>
        </mxCell>
        <mxCell id="_gdVhUl3nsyEt75Ght2n-27" style="edgeStyle=none;rounded=0;html=1;dashed=1;labelBackgroundColor=none;startArrow=none;startFill=0;startSize=8;endArrow=open;endFill=0;endSize=16;fontFamily=Verdana;fontSize=12;exitX=0;exitY=0;exitDx=170;exitDy=147.5;exitPerimeter=0;entryX=0.006;entryY=0.571;entryDx=0;entryDy=0;entryPerimeter=0;" edge="1" parent="1" source="_gdVhUl3nsyEt75Ght2n-10" target="_gdVhUl3nsyEt75Ght2n-7">
          <mxGeometry relative="1" as="geometry">
            <mxPoint x="367.5" y="415" as="sourcePoint" />
            <mxPoint x="112.5" y="476" as="targetPoint" />
          </mxGeometry>
        </mxCell>
        <mxCell id="_gdVhUl3nsyEt75Ght2n-28" value="Uses" style="edgeLabel;html=1;align=center;verticalAlign=middle;resizable=0;points=[];fontStyle=1" vertex="1" connectable="0" parent="_gdVhUl3nsyEt75Ght2n-27">
          <mxGeometry x="0.2243" y="1" relative="1" as="geometry">
            <mxPoint x="2" y="-17" as="offset" />
          </mxGeometry>
        </mxCell>
        <mxCell id="_gdVhUl3nsyEt75Ght2n-29" style="edgeStyle=none;rounded=0;html=1;dashed=1;labelBackgroundColor=none;startArrow=none;startFill=0;startSize=8;endArrow=open;endFill=0;endSize=16;fontFamily=Verdana;fontSize=12;exitX=0.989;exitY=0.35;exitDx=0;exitDy=0;exitPerimeter=0;entryX=0;entryY=0.654;entryDx=0;entryDy=0;entryPerimeter=0;" edge="1" parent="1" source="_gdVhUl3nsyEt75Ght2n-2" target="_gdVhUl3nsyEt75Ght2n-1">
          <mxGeometry relative="1" as="geometry">
            <mxPoint x="780" y="272" as="sourcePoint" />
            <mxPoint x="530" y="520" as="targetPoint" />
          </mxGeometry>
        </mxCell>
        <mxCell id="_gdVhUl3nsyEt75Ght2n-30" value="Uses" style="edgeLabel;html=1;align=center;verticalAlign=middle;resizable=0;points=[];fontStyle=1" vertex="1" connectable="0" parent="_gdVhUl3nsyEt75Ght2n-29">
          <mxGeometry x="0.2243" y="1" relative="1" as="geometry">
            <mxPoint x="2" y="-17" as="offset" />
          </mxGeometry>
        </mxCell>
      </root>
    </mxGraphModel>
  </diagram>
</mxfile>
